HIERARCHY
ROOT Hips
{
	OFFSET 56.877701 -32.693596 43.373703
	CHANNELS 6 Xposition Yposition Zposition Zrotation Xrotation Yrotation
	JOINT Chest
	{
		OFFSET -0.779999 1.005800 5.403099
		CHANNELS 6 Xposition Yposition Zposition Zrotation Xrotation Yrotation
		JOINT Chest2
		{
			OFFSET 0.000000 0.000000 4.236801
			CHANNELS 6 Xposition Yposition Zposition Zrotation Xrotation Yrotation
			JOINT Neck
			{
				OFFSET 0.000000 0.000000 9.874401
				CHANNELS 6 Xposition Yposition Zposition Zrotation Xrotation Yrotation
				JOINT Head
				{
					OFFSET 0.000000 0.000002 2.173893
					CHANNELS 6 Xposition Yposition Zposition Zrotation Xrotation Yrotation
					End Site
					{
						OFFSET 0.000000 0.000000 6.508102
					}
				}
			}
			JOINT LeftCollar
			{
				OFFSET 2.681599 -0.377600 5.432499
				CHANNELS 6 Xposition Yposition Zposition Zrotation Xrotation Yrotation
				JOINT LeftShoulder
				{
					OFFSET 5.161499 0.000000 0.000000
					CHANNELS 6 Xposition Yposition Zposition Zrotation Xrotation Yrotation
					JOINT LeftElbow
					{
						OFFSET 0.000000 0.000000 -10.869099
						CHANNELS 6 Xposition Yposition Zposition Zrotation Xrotation Yrotation
						JOINT LeftWrist
						{
							OFFSET 0.000000 0.000000 -13.344799
							CHANNELS 6 Xposition Yposition Zposition Zrotation Xrotation Yrotation
							End Site
							{
								OFFSET 0.000000 0.000000 -2.173901
							}
						}
					}
				}
			}
			JOINT RightCollar
			{
				OFFSET -2.381901 -1.419600 6.136600
				CHANNELS 6 Xposition Yposition Zposition Zrotation Xrotation Yrotation
				JOINT RightShoulder
				{
					OFFSET -4.550499 0.000000 0.000000
					CHANNELS 6 Xposition Yposition Zposition Zrotation Xrotation Yrotation
					JOINT RightElbow
					{
						OFFSET 0.000000 0.000000 -11.106499
						CHANNELS 6 Xposition Yposition Zposition Zrotation Xrotation Yrotation
						JOINT RightWrist
						{
							OFFSET 0.000000 0.000000 -12.874298
							CHANNELS 6 Xposition Yposition Zposition Zrotation Xrotation Yrotation
							End Site
							{
								OFFSET 0.000000 0.000000 -2.173901
							}
						}
					}
				}
			}
		}
	}
	JOINT LeftHip
	{
		OFFSET 2.431900 0.469601 -2.489399
		CHANNELS 6 Xposition Yposition Zposition Zrotation Xrotation Yrotation
		JOINT LeftKnee
		{
			OFFSET 0.000000 -0.000004 -18.200201
			CHANNELS 6 Xposition Yposition Zposition Zrotation Xrotation Yrotation
			JOINT LeftAnkle
			{
				OFFSET 0.000000 0.000000 -16.279900
				CHANNELS 6 Xposition Yposition Zposition Zrotation Xrotation Yrotation
				End Site
				{
					OFFSET 0.000000 -8.394100 0.000000
				}
			}
		}
	}
	JOINT RightHip
	{
		OFFSET -1.987999 -0.073502 -2.713001
		CHANNELS 6 Xposition Yposition Zposition Zrotation Xrotation Yrotation
		JOINT RightKnee
		{
			OFFSET 0.000000 -0.000004 -19.547802
			CHANNELS 6 Xposition Yposition Zposition Zrotation Xrotation Yrotation
			JOINT RightAnkle
			{
				OFFSET 0.000000 0.000000 -14.881199
				CHANNELS 6 Xposition Yposition Zposition Zrotation Xrotation Yrotation
				End Site
				{
					OFFSET 0.000000 -7.922699 0.000000
				}
			}
		}
	}
}
MOTION
Frames: 4
Frame Time: 0.041667
52.218197 -35.333897 42.747097 4985.818654 0.858821 4.380476 -0.780006 1.005796 5.403101 23.259516 -9.915928 6.908373 0.000005 -0.000003 4.236796 -4.896528 1.842100 0.340255 -0.000004 0.000002 9.874407 53.944086 0.107683 -18.582663 0.000011 0.000008 2.173892 3.054995 0.848126 6.230438 2.681599 -0.377601 5.432497 9.256094 -4.278648 -18.458569 5.161505 -0.000003 -0.000002 -233.607305 -118.610319 -331.060225 0.000006 -0.000003 -10.869096 76.100083 -34.044405 89.916982 -0.000000 0.000003 -13.344801 1.387747 -25.563144 35.006099 -2.381901 -1.419600 6.136597 14.159779 2.478980 20.675609 -4.550500 -0.000003 0.000014 -1247.605523 -539.097761 -446.897611 -0.000001 -0.000003 -11.106502 728.630975 -15.677772 717.705459 0.000010 0.000002 -12.874300 -289.079233 0.929612 67.149816 2.431897 0.469593 -2.489396 10.968924 -5.132618 -12.835154 -0.000006 -0.000003 -18.200211 -145.594402 22.225362 127.309358 -0.000003 0.000011 -16.279903 55.089652 24.571131 44.023947 -1.988008 -0.073506 -2.712993 8.995207 7.612307 -7.943411 0.000009 -0.000005 -19.547802 -1843.081414 14.635637 -12.116691 0.000001 -0.000002 -14.881195 2164.392309 27.836612 -327.355394
52.236401 -35.328094 42.756905 4986.058639 0.951049 4.383781 -0.779994 1.005805 5.403093 22.993835 -10.000142 6.907985 0.000008 -0.000001 4.236797 -4.933102 1.838356 0.340423 0.000010 0.000006 9.874399 54.029136 0.055987 -18.530054 -0.000003 0.000008 2.173894 3.060998 0.928267 6.239436 2.681620 -0.377597 5.432506 9.480685 -4.456619 -18.481249 5.161494 0.000008 0.000004 -233.467204 -118.584064 -330.943784 0.000000 -0.000002 -10.869102 76.204858 -34.854722 90.112106 -0.000010 0.000013 -13.344808 -1.059535 -25.803102 33.826041 -2.381890 -1.419600 6.136598 14.200100 2.458421 20.680648 -4.550505 -0.000006 0.000005 -1247.581371 -539.374684 -446.869744 -0.000005 -0.000003 -11.106505 727.957628 -15.292901 717.609126 -0.000009 -0.000006 -12.874299 -288.915800 1.034953 66.612964 2.431906 0.469607 -2.489402 10.710671 -5.206707 -12.820759 -0.000006 -0.000003 -18.200199 -145.581316 22.234626 127.369682 -0.000005 0.000002 -16.279892 54.774555 24.488296 44.087884 -1.987990 -0.073492 -2.712995 8.544823 7.466574 -7.912918 -0.000009 -0.000001 -19.547806 -1842.976502 14.739980 -11.995687 -0.000004 -0.000004 -14.881199 2164.489352 27.826237 -327.393944
52.254398 -35.321800 42.766499 4986.282014 1.052371 4.379472 -0.779997 1.005797 5.403091 22.754208 -10.092190 6.916643 0.000008 0.000002 4.236799 -4.953761 1.828958 0.340383 0.000001 0.000000 9.874399 54.135369 0.001570 -18.492543 -0.000003 0.000008 2.173901 3.067657 1.012161 6.240180 2.681600 -0.377598 5.432496 9.668464 -4.595248 -18.501454 5.161503 0.000005 0.000001 -232.533490 -118.766253 -330.061515 -0.000002 -0.000001 -10.869090 76.661415 -35.953013 90.112270 -0.000011 0.000008 -13.344788 -3.984314 -26.050451 32.194909 -2.381890 -1.419597 6.136594 14.245927 2.484314 20.671791 -4.550505 -0.000005 0.000009 -1247.582136 -539.549591 -446.811714 0.000000 -0.000002 -11.106502 727.440336 -14.855894 717.542900 -0.000005 -0.000004 -12.874290 -288.730756 1.055214 66.157513 2.431896 0.469597 -2.489400 10.477905 -5.303575 -12.787421 -0.000003 -0.000009 -18.200207 -145.569199 22.245880 127.437943 0.000004 0.000010 -16.279905 54.770529 24.462625 44.049591 -1.988002 -0.073506 -2.712997 8.097760 7.316277 -7.871484 0.000001 -0.000002 -19.547802 -1842.868530 14.841207 -11.883674 -0.000000 0.000004 -14.881197 2164.599947 27.818860 -327.453913
52.271202 -35.315090 42.774403 4986.455992 1.220776 4.341854 -0.780004 1.005794 5.403101 22.651067 -10.286528 6.971851 0.000010 0.000003 4.236804 -4.944045 1.828776 0.342862 0.000003 0.000002 9.874405 54.236654 0.021257 -18.541966 0.000000 0.000009 2.173892 3.000005 1.027536 6.271089 2.681604 -0.377601 5.432501 9.587577 -4.472275 -18.429546 5.161509 0.000002 0.000006 -231.750450 -118.918429 -329.758992 0.000001 -0.000003 -10.869088 76.530412 -36.204480 89.338424 -0.000013 0.000005 -13.344795 -7.878536 -26.586446 30.936229 -2.381894 -1.419593 6.136595 14.401244 2.757346 20.747528 -4.550505 0.000002 0.000005 -1247.844853 -539.544783 -446.806496 0.000010 -0.000002 -11.106505 727.172593 -14.394354 717.522355 -0.000005 0.000005 -12.874299 -288.735100 1.043283 65.537543 2.431897 0.469592 -2.489394 10.314973 -5.482706 -12.711722 0.000001 -0.000004 -18.200203 -145.580797 22.243281 127.503799 -0.000004 0.000006 -16.279890 55.020531 24.495111 43.948801 -1.988012 -0.073510 -2.712992 7.710904 7.110175 -7.787986 -0.000005 -0.000003 -19.547804 -1842.777825 14.929871 -11.794061 0.000003 -0.000002 -14.881197 2164.706170 27.814352 -327.515794
